<?xml version="1.0" standalone="no"?>
<!DOCTYPE svg PUBLIC "-//W3C//DTD SVG 20010904//EN"
 "http://www.w3.org/TR/2001/REC-SVG-20010904/DTD/svg10.dtd">
<svg version="1.0" xmlns="http://www.w3.org/2000/svg"
 width="403.000000pt" height="403.000000pt" viewBox="0 0 403.000000 403.000000"
 preserveAspectRatio="xMidYMid meet">
<metadata>
Created by potrace 1.14, written by Peter Selinger 2001-2017
</metadata>
<g transform="translate(0.000000,403.000000) scale(0.100000,-0.100000)"
fill="#000000" stroke="none">
<path d="M3608 2773 c-9 -10 -20 -31 -25 -47 -5 -17 -25 -38 -48 -52 -94 -55
-98 -57 -117 -45 -26 16 -42 14 -72 -10 -33 -26 -34 -62 -1 -95 23 -23 25 -33
25 -109 0 -49 -4 -85 -10 -85 -20 0 -42 -49 -35 -79 8 -37 54 -59 90 -43 21
10 34 5 97 -31 53 -30 73 -47 70 -59 -4 -23 41 -68 68 -68 26 0 70 43 70 69 0
12 17 29 48 48 88 53 100 57 116 44 10 -8 27 -10 46 -6 54 12 67 69 25 111
-23 23 -25 32 -24 107 1 73 4 83 25 100 24 18 32 60 16 83 -16 25 -53 36 -81
24 -25 -10 -35 -6 -99 30 -51 29 -72 48 -72 61 0 27 -44 69 -73 69 -13 0 -31
-8 -39 -17z m-30 -140 c-11 -21 -29 -51 -39 -68 -11 -16 -22 -37 -26 -45 -4
-8 -31 -55 -60 -105 l-53 -90 0 84 c0 76 3 88 24 110 13 15 26 35 28 46 3 22
20 37 88 77 60 36 63 35 38 -9z m199 -2 c53 -30 69 -44 71 -64 2 -15 14 -35
28 -46 22 -17 24 -26 24 -102 0 -87 -4 -90 -37 -29 -10 19 -31 54 -46 77 -15
24 -27 45 -27 47 0 2 -20 38 -45 80 -24 42 -43 76 -41 76 2 0 35 -17 73 -39z
m-87 -6 c10 -16 53 -93 98 -169 62 -109 78 -143 70 -156 -9 -14 -36 -16 -207
-16 -165 0 -198 2 -208 15 -9 13 -8 22 7 46 10 17 25 42 32 55 7 14 45 78 83
143 76 128 93 140 125 82z m99 -413 c-80 -47 -97 -54 -104 -42 -8 13 -62 13
-70 0 -4 -7 -28 2 -63 21 -110 63 -117 59 103 59 l200 0 -66 -38z"/>
<path d="M3089 2304 c-18 -22 -17 -430 2 -470 19 -38 54 -55 113 -52 44 3 50
6 59 31 14 44 1 77 -33 84 l-30 6 0 193 c0 162 -3 195 -16 208 -20 21 -78 21
-95 0z"/>
<path d="M1224 2258 c-4 -7 -9 -30 -10 -53 -1 -22 -3 -46 -3 -54 -1 -7 -7 -11
-16 -7 -22 8 -45 -21 -45 -59 0 -37 25 -69 46 -61 16 6 15 8 18 -91 3 -83 21
-118 71 -139 44 -18 109 -18 124 0 15 18 18 73 4 87 -5 5 -23 12 -39 15 -36 7
-35 5 -36 45 -3 82 0 90 28 85 14 -3 36 -1 50 4 20 8 24 16 24 54 0 51 -14 64
-67 61 -18 0 -33 2 -34 5 0 3 -2 25 -3 50 -1 25 -5 51 -9 58 -10 16 -93 16
-103 0z"/>
<path d="M898 2143 c-52 -15 -76 -44 -79 -95 -3 -69 41 -123 112 -134 21 -4
47 -12 56 -19 17 -12 16 -14 -9 -20 -17 -4 -42 0 -72 14 -55 24 -69 20 -90
-22 -15 -31 -15 -33 9 -54 71 -63 249 -44 274 29 34 96 -7 153 -126 174 -37 7
-50 21 -35 36 9 9 22 9 57 0 64 -17 71 -16 88 20 18 38 11 52 -36 67 -53 17
-101 19 -149 4z"/>
<path d="M1520 2143 c-27 -11 -30 -26 -30 -185 0 -145 1 -158 19 -168 27 -14
64 -13 85 3 14 10 17 30 18 110 1 116 13 134 76 123 49 -7 71 8 78 54 7 47 -5
61 -57 67 -34 4 -50 1 -69 -15 -21 -17 -26 -18 -35 -5 -12 15 -61 25 -85 16z"/>
<path d="M1925 2136 c-45 -19 -94 -75 -106 -120 -24 -87 18 -182 94 -217 50
-22 79 -24 115 -5 24 12 30 12 47 0 25 -19 70 -18 89 2 13 13 16 42 16 167 0
84 -4 158 -9 166 -15 23 -78 24 -100 2 -16 -16 -21 -17 -32 -6 -21 20 -80 25
-114 11z m119 -145 c25 -48 -16 -99 -68 -85 -31 8 -52 54 -37 83 25 45 82 47
105 2z"/>
<path d="M2263 2135 c-17 -12 -18 -32 -18 -255 1 -264 0 -260 61 -260 48 0 59
21 59 115 l-1 81 29 -14 c63 -31 157 10 192 84 10 22 17 60 17 92 0 45 -6 61
-29 90 -58 72 -122 95 -179 66 -21 -11 -30 -12 -41 -2 -21 17 -68 19 -90 3z
m207 -132 c32 -41 6 -93 -46 -93 -49 0 -72 62 -36 98 26 26 59 24 82 -5z"/>
<path d="M2765 2136 c-105 -47 -144 -172 -82 -265 15 -22 39 -48 54 -58 28
-18 100 -23 138 -9 19 7 20 3 20 -79 0 -95 6 -105 61 -105 54 0 56 8 56 266 1
219 0 238 -17 250 -25 18 -55 18 -83 -1 -17 -13 -26 -14 -43 -4 -34 18 -71 20
-104 5z m113 -134 c44 -57 -37 -123 -88 -72 -27 27 -25 46 5 76 27 27 59 26
83 -4z"/>
<path d="M140 1863 l-114 -118 117 -3 117 -3 0 -119 0 -120 118 0 118 0 -1
-107 c-1 -60 0 -112 3 -117 3 -5 56 44 119 110 l113 118 0 238 0 238 -238 0
-239 0 -113 -117z"/>
</g>
</svg>
